<?xml version="1.0" standalone="no"?>
<!DOCTYPE svg PUBLIC "-//W3C//DTD SVG 20010904//EN"
 "http://www.w3.org/TR/2001/REC-SVG-20010904/DTD/svg10.dtd">
<svg version="1.0" xmlns="http://www.w3.org/2000/svg"
 width="80.000000pt" height="80.000000pt" viewBox="0 0 80.000000 80.000000"
 preserveAspectRatio="xMidYMid meet">
<metadata>
Created by potrace 1.14, written by Peter Selinger 2001-2017
</metadata>
<g transform="translate(0.000000,80.000000) scale(0.100000,-0.100000)"
fill="#000000" stroke="none">
<path d="M373 768 c-3 -59 -26 -108 -121 -252 -37 -55 -67 -103 -68 -106 0 -3
-9 -23 -19 -45 -21 -48 -22 -138 -2 -187 22 -52 72 -103 125 -128 46 -22 146
-35 167 -22 5 4 19 8 29 9 52 8 128 82 155 150 33 81 2 253 -59 330 l-19 25
-7 -29 c-13 -56 -44 -73 -37 -20 6 49 6 59 -1 96 -11 53 -45 113 -89 154 -44
40 -53 44 -54 25z"/>
</g>
</svg>
